<svg width="22" height="17" viewBox="0 0 22 17" fill="none" xmlns="http://www.w3.org/2000/svg">
<path fill-rule="evenodd" clip-rule="evenodd" d="M9.32984 0.00526175C9.3246 0.0103478 9.12647 0.0185191 8.88953 0.0234244C7.92333 0.0433828 6.82238 0.105873 5.97978 0.188575C5.71378 0.21468 5.45789 0.243136 5.38955 0.254212C5.36904 0.257538 5.30754 0.266372 5.25286 0.273845C4.43362 0.38587 3.89482 0.541403 3.68148 0.727453C3.55553 0.837284 3.41682 1.04915 3.31038 1.29428C3.11324 1.7483 3.0178 2.07724 2.76726 3.16616C2.61001 3.84965 2.56936 4.02248 2.53693 4.14569C2.46951 4.40182 2.43374 4.40789 2.32107 4.18231C2.23724 4.01453 2.19923 3.97536 2.04562 3.89842C1.88185 3.81639 1.61375 3.7455 1.28278 3.69672C1.23152 3.68917 1.15929 3.67787 1.12228 3.67164C1.01074 3.65285 0.458247 3.65745 0.356615 3.67801C0.160721 3.71765 0.102953 3.75177 0.0646808 3.8504C0.043768 3.9043 0.0395929 3.93395 0.0455946 3.98571C0.0498318 4.02217 0.0585548 4.13064 0.0649914 4.22676C0.0807227 4.46172 0.0940805 4.52872 0.167195 4.73897C0.22295 4.89931 0.305334 5.04462 0.460745 5.25669C0.545899 5.37288 0.762036 5.5864 0.836939 5.6283C0.964988 5.69995 1.13336 5.73325 1.36769 5.73327C1.50462 5.73328 1.54461 5.73676 1.54066 5.74834C1.5298 5.78021 1.41988 5.83022 1.28278 5.86569C1.11463 5.90919 0.944784 5.98605 0.84432 6.06412C0.758308 6.13095 0.63933 6.28286 0.575088 6.40786C0.411153 6.72686 0.256537 7.26131 0.187983 7.74599C0.18095 7.79571 0.169841 7.87164 0.163305 7.91472C0.156757 7.95781 0.145648 8.04458 0.138603 8.10756C0.131557 8.17053 0.120411 8.26815 0.113838 8.3245C0.0799274 8.61487 0.039568 9.19628 0.0138339 9.76473C-0.0044446 10.1687 -0.00466827 11.6567 0.0135108 11.9341C0.0315781 12.2097 0.0492851 12.4507 0.0644571 12.6271C0.071018 12.7034 0.0821889 12.8335 0.0892965 12.9164C0.0964166 12.9992 0.10755 13.1186 0.114061 13.1815C0.14499 13.4805 0.154085 13.5691 0.164262 13.6696C0.170289 13.7293 0.181497 13.8323 0.189164 13.8986C0.19683 13.9649 0.208076 14.0625 0.214152 14.1156C0.220228 14.1686 0.231126 14.2635 0.23837 14.3265C0.245615 14.3895 0.257481 14.4817 0.264738 14.5314C0.271995 14.5811 0.282433 14.8062 0.287962 15.0315C0.298363 15.4566 0.309794 15.56 0.363996 15.7198C0.400442 15.8272 0.450332 15.8963 0.591515 16.0349C0.73445 16.1752 0.758296 16.1866 0.941068 16.202C1.20137 16.2239 4.25603 16.1999 4.5508 16.1736C4.68097 16.1621 4.72915 16.1432 4.78116 16.0835C4.87972 15.9704 4.91648 15.7897 4.93421 15.3307C4.94312 15.1001 4.95093 15.0774 5.03629 15.0339C5.08255 15.0103 5.17023 15.0109 5.55108 15.0374C5.64676 15.044 5.81731 15.0551 5.93008 15.0619C6.04284 15.0688 6.21339 15.0795 6.30907 15.0858C6.40475 15.092 6.57529 15.1027 6.68806 15.1096C6.80082 15.1165 6.97137 15.1274 7.06705 15.134C7.16273 15.1405 7.33327 15.1515 7.44604 15.1583C7.5588 15.1652 7.73774 15.1761 7.84367 15.1825C7.9496 15.189 8.11176 15.1995 8.20402 15.2059C8.29628 15.2124 8.46124 15.2234 8.57058 15.2305C8.67993 15.2375 8.84768 15.2484 8.94336 15.2546C9.03904 15.2608 9.20959 15.2715 9.32235 15.2783C9.51334 15.29 9.64221 15.2981 10.0865 15.3267C10.1822 15.3328 10.3528 15.3443 10.4655 15.3523C10.7291 15.3708 11.4189 15.3708 11.6833 15.3523C11.796 15.3445 11.9722 15.3326 12.0747 15.326C12.1772 15.3194 12.3394 15.3089 12.435 15.3027C12.5307 15.2965 12.7041 15.2856 12.8202 15.2786C12.9364 15.2716 13.1098 15.2608 13.2055 15.2546C13.3011 15.2484 13.4689 15.2375 13.5782 15.2305C13.6876 15.2234 13.8525 15.2124 13.9448 15.2059C14.0371 15.1995 14.1992 15.189 14.3051 15.1825C14.4111 15.1761 14.59 15.1652 14.7028 15.1583C14.8155 15.1515 14.9861 15.1405 15.0818 15.134C15.1774 15.1274 15.348 15.1165 15.4608 15.1096C15.5735 15.1027 15.7469 15.0919 15.846 15.0855C15.9451 15.0791 16.1128 15.0687 16.2187 15.0623C16.3247 15.056 16.498 15.0444 16.6039 15.0365C16.7099 15.0286 16.843 15.0216 16.8998 15.0208C16.9958 15.0196 17.0046 15.0216 17.0261 15.0492C17.0584 15.0907 17.0637 15.1268 17.0637 15.3042C17.0637 15.5162 17.1093 15.7558 17.1722 15.8744C17.2011 15.9289 17.4001 16.1226 17.4489 16.1437C17.4728 16.1541 17.5427 16.1675 17.6042 16.1734C17.9016 16.2023 20.9708 16.224 21.2264 16.199C21.3833 16.1837 21.4252 16.1673 21.5044 16.0906C21.6523 15.9473 21.7006 15.7064 21.7048 15.0909C21.7059 14.918 21.7106 14.7707 21.7151 14.7636C21.7228 14.7516 21.7336 14.6726 21.7609 14.4289C21.7727 14.3241 21.7925 14.1506 21.8112 13.989C21.8177 13.9327 21.8286 13.8269 21.8354 13.754C21.8422 13.6811 21.8533 13.5672 21.8601 13.5009C21.8717 13.3867 21.8833 13.2663 21.9104 12.9766C22.0114 11.8971 22.0255 10.9614 21.9603 9.66229C21.892 8.29904 21.7316 7.32128 21.491 6.7999C21.3034 6.39352 21.2191 6.25603 21.0716 6.11556C20.9589 6.00825 20.8761 5.95897 20.7338 5.9144C20.6733 5.89544 20.5594 5.85987 20.4808 5.83536C20.2441 5.76155 20.1051 5.68175 19.9639 5.53875C19.8509 5.4242 19.8182 5.34121 19.8731 5.30788C19.9131 5.28361 19.9561 5.31143 20.0656 5.43248C20.2234 5.60689 20.3097 5.65337 20.5793 5.70906C20.8275 5.76033 21.1352 5.72708 21.3084 5.63029C21.3876 5.58602 21.5328 5.43893 21.61 5.32471C21.7059 5.18299 21.8149 4.96487 21.8516 4.84142C21.905 4.66148 21.9391 4.40598 21.9329 4.23229C21.9283 4.10088 21.9276 4.09819 21.8763 4.01535C21.8477 3.96922 21.8204 3.91521 21.8156 3.89532C21.7837 3.76343 21.723 3.71948 21.5142 3.6771C21.4169 3.65736 20.8709 3.65348 20.7494 3.67168C20.7076 3.67795 20.6287 3.68912 20.574 3.69651C20.363 3.72503 20.1578 3.77204 19.9663 3.83567C19.7255 3.9157 19.6168 4.00765 19.556 4.1825C19.516 4.2974 19.4865 4.33596 19.4569 4.31211C19.4347 4.29424 19.3599 3.99535 19.2063 3.31079C19.1684 3.14176 19.124 2.95194 19.1077 2.88896C19.0913 2.82599 19.0659 2.72023 19.0512 2.65395C19.0173 2.50145 18.892 2.07198 18.8261 1.88261C18.7985 1.80306 18.7478 1.67561 18.7135 1.59938C18.6793 1.52315 18.6331 1.4201 18.611 1.37039C18.4443 0.996542 18.2268 0.721776 18.0123 0.614319C17.7648 0.49029 17.1989 0.351581 16.6226 0.273688C16.5679 0.2663 16.5064 0.257466 16.4859 0.254043C16.4654 0.250632 16.3983 0.24281 16.3368 0.236676C16.2753 0.230529 16.1802 0.219983 16.1255 0.213234C15.9735 0.194457 15.7621 0.174655 15.3489 0.140475C14.7895 0.0941827 13.8076 0.0440336 12.9818 0.0195677C12.4874 0.00492428 9.34287 -0.00739304 9.32984 0.00526175ZM12.0623 0.936076C12.7651 0.952937 13.1249 0.967628 13.833 1.00838C14.5515 1.04973 15.5328 1.13166 15.846 1.17646C15.9661 1.19364 16.0892 1.21061 16.1939 1.22439C16.2451 1.23114 16.3735 1.25335 16.479 1.27374C16.9621 1.36709 17.1823 1.44686 17.2992 1.57091C17.3882 1.6654 17.5145 1.91251 17.6433 2.24417C17.8385 2.74687 18.1444 3.79298 18.3253 4.57627C18.3551 4.70553 18.3998 4.89535 18.4245 4.99809C18.4691 5.18355 18.528 5.44325 18.5857 5.70917C18.6023 5.7854 18.6271 5.89658 18.641 5.95624C18.6712 6.08655 18.6729 6.1351 18.6479 6.15518C18.6282 6.17106 18.5277 6.16745 18.3436 6.14422C18.149 6.11968 18.0234 6.10479 17.9273 6.09484C17.8726 6.08919 17.7776 6.07842 17.7161 6.0709C17.6546 6.06337 17.5623 6.05211 17.511 6.04586C17.4598 6.03962 17.3675 6.02912 17.306 6.02253C17.2445 6.01594 17.1522 6.00544 17.101 5.9992C17.0497 5.99295 16.9575 5.98176 16.8959 5.97432C16.8344 5.96689 16.7422 5.95569 16.6909 5.94945C16.6397 5.9432 16.5446 5.93238 16.4797 5.9254C16.4148 5.91844 16.3169 5.9079 16.2622 5.90201C16.2076 5.89611 16.1069 5.88527 16.0386 5.8779C15.9702 5.87054 15.8696 5.85969 15.8149 5.8538C15.632 5.83408 15.4679 5.8164 15.3613 5.80495C15.2638 5.79445 15.1836 5.78648 14.8829 5.75738C14.8214 5.75143 14.7096 5.74053 14.6344 5.73317C14.491 5.7191 14.3363 5.7055 14.0877 5.68507C14.0057 5.67833 13.8771 5.66748 13.8019 5.66096C13.7267 5.65444 13.5981 5.6436 13.5161 5.63686C13.4341 5.63012 13.3055 5.61923 13.2303 5.61266C13.0283 5.59499 12.546 5.55906 12.2549 5.54C11.4942 5.49017 11.1409 5.47763 10.5028 5.47777C9.87866 5.47792 9.25674 5.49786 8.56437 5.53995C8.45844 5.54638 8.27951 5.55727 8.16674 5.56413C7.83381 5.58436 7.31866 5.62137 6.81853 5.66096C6.73652 5.66746 6.59673 5.67831 6.50788 5.68507C6.2222 5.70682 6.06394 5.71959 5.91144 5.73318C5.82942 5.74048 5.70641 5.75131 5.63807 5.75723C5.56972 5.76314 5.4523 5.774 5.37712 5.78138C5.30194 5.78874 5.19011 5.79964 5.1286 5.80559C4.82716 5.83477 4.74731 5.84271 4.64399 5.8538C4.58248 5.8604 4.47624 5.87125 4.4079 5.8779C4.33956 5.88456 4.23611 5.89514 4.17802 5.90142C4.00408 5.92022 3.85563 5.9362 3.73069 5.94957C3.66576 5.95651 3.56791 5.96717 3.51323 5.97327C3.40575 5.98525 3.35792 5.97157 3.3579 5.92885C3.35788 5.89356 3.52469 5.06827 3.6057 4.70282C3.84119 3.64045 3.98741 3.04137 4.11459 2.61779C4.22529 2.24904 4.24139 2.19766 4.29215 2.05134C4.3932 1.76004 4.48802 1.57221 4.56627 1.50835C4.70238 1.39726 5.08827 1.29836 5.71883 1.21295C5.77009 1.20601 5.8288 1.19754 5.84931 1.19411C5.86981 1.1907 5.9397 1.18257 6.00463 1.17603C6.06956 1.1695 6.17021 1.15899 6.2283 1.15268C6.40091 1.1339 6.68121 1.11004 7.06705 1.08126C7.21928 1.06989 7.36061 1.05989 7.75669 1.03241C8.35129 0.991154 9.29299 0.952226 10.0079 0.939354C10.279 0.934473 10.5052 0.926193 10.5106 0.920962C10.5216 0.910296 11.3068 0.917949 12.0623 0.936076ZM1.0057 10.3C1.03849 10.3061 1.11565 10.3176 1.17716 10.3256C1.37276 10.3511 1.97179 10.4517 2.13706 10.4868C2.18662 10.4973 2.26768 10.5144 2.31724 10.5247C2.36679 10.535 2.46045 10.5561 2.52537 10.5717C2.5903 10.5872 2.66443 10.6034 2.6901 10.6077C2.74587 10.6171 3.33244 10.772 3.43868 10.8055C3.90387 10.952 4.3415 11.1634 4.52273 11.3291C4.80772 11.5898 5.12629 12.138 5.20699 12.5066C5.25629 12.7319 5.2617 12.7941 5.24054 12.8928C5.21153 13.0279 5.20074 13.0526 5.15015 13.0996C5.05995 13.1834 4.96083 13.2136 4.83825 13.1945C4.74538 13.18 4.52943 13.1475 4.27121 13.1092C3.8164 13.0416 3.86381 13.0502 2.5378 12.7955C1.99448 12.6912 1.48284 12.594 1.40083 12.5796C1.08392 12.5238 0.989666 12.5055 0.959359 12.4939C0.903256 12.4723 0.89257 12.4398 0.882455 12.2595C0.877236 12.1667 0.867134 12.0013 0.859989 11.8919C0.852857 11.7826 0.841848 11.6117 0.835535 11.5123C0.829223 11.4129 0.818002 11.2447 0.810596 11.1387C0.80319 11.0326 0.792044 10.8645 0.785819 10.7651C0.779606 10.6656 0.770784 10.5314 0.766223 10.4668C0.755127 10.3096 0.767416 10.289 0.872403 10.289C0.912911 10.289 0.972891 10.294 1.0057 10.3ZM21.0722 10.3192C21.0893 10.3444 21.0913 10.3689 21.0844 10.4668C21.0744 10.6073 21.0579 10.8665 21.04 11.1628C21.0276 11.3677 21.0218 11.4597 20.9907 11.9402C20.9837 12.0495 20.9737 12.208 20.9685 12.2924C20.9605 12.4231 20.9553 12.4494 20.9339 12.4703C20.9083 12.495 20.8181 12.5155 20.456 12.5786C20.3705 12.5935 19.8841 12.6856 19.3749 12.7834C18.1946 13.0101 17.9324 13.0577 17.5794 13.1095C17.3682 13.1405 17.1241 13.1771 17.0114 13.1946C16.876 13.2158 16.7523 13.17 16.6787 13.0715C16.5989 12.9646 16.5794 12.8321 16.6151 12.6385C16.6684 12.3487 16.8168 11.9964 16.9927 11.7418C17.197 11.4462 17.3226 11.3126 17.5015 11.2007C17.7098 11.0704 18.0803 10.9096 18.4119 10.8056C18.5081 10.7754 18.9965 10.6453 19.1015 10.6218C19.146 10.6119 19.255 10.5875 19.3439 10.5676C19.6875 10.4907 19.7323 10.4813 19.8347 10.4644C19.8928 10.4548 19.9962 10.4362 20.0646 10.4231C20.2002 10.3971 20.5124 10.3472 20.6796 10.3247C20.7377 10.3169 20.8076 10.3063 20.835 10.3011C20.8623 10.2958 20.9223 10.291 20.9683 10.2903C21.0445 10.2891 21.0536 10.2917 21.0722 10.3192Z" fill="#ABCFFF"/>
</svg>
