<svg width="22" height="22" viewBox="0 0 22 22" fill="none" xmlns="http://www.w3.org/2000/svg">
<path fill-rule="evenodd" clip-rule="evenodd" d="M11 22C17.0751 22 22 17.0751 22 11C22 4.92487 17.0751 0 11 0C4.92487 0 0 4.92487 0 11C0 17.0751 4.92487 22 11 22ZM8.34268 16.3775C8.96663 16.9599 9.9148 17.275 11.1872 17.3228V18.7407H12.1231V17.3084C13.1508 17.2321 13.9644 16.9265 14.5639 16.3918C15.1756 15.8475 15.4815 15.1887 15.4815 14.4152C15.4815 13.68 15.2796 13.0498 14.8759 12.5246C14.4844 11.9899 13.9216 11.4599 13.1875 10.9348L11.9396 10.0897C11.4625 9.7555 11.1015 9.45949 10.8569 9.20168C10.6244 8.93432 10.5082 8.59534 10.5082 8.18475C10.5082 7.95558 10.5816 7.75029 10.7284 7.56887C10.8874 7.37789 11.1138 7.28241 11.4074 7.28241C11.7867 7.27286 12.0314 7.40176 12.1415 7.66913C12.2638 7.92694 12.3372 8.3614 12.3617 8.97251L15.2062 8.70038C15.1695 7.8219 14.9309 7.07234 14.4905 6.45168C14.0623 5.82147 13.2181 5.47772 11.958 5.42043V4.07407H11.022V5.43475C9.87198 5.50159 8.96663 5.7976 8.30597 6.32277C7.65755 6.8384 7.33333 7.54499 7.33333 8.44256C7.33333 9.12051 7.4985 9.67911 7.82883 10.1183C8.17139 10.5576 8.67301 11.0064 9.33367 11.4647L10.6366 12.3384C11.1872 12.7203 11.5909 13.0736 11.8478 13.3983C12.117 13.7134 12.2516 14.0953 12.2516 14.5441C12.2516 15.1075 11.9763 15.3892 11.4258 15.3892C10.9976 15.3892 10.6795 15.2316 10.4715 14.9165C10.2635 14.5919 10.1534 14.0619 10.1411 13.3267L7.33333 13.6561C7.38227 14.8783 7.71872 15.7854 8.34268 16.3775Z" fill="#ABCFFF"/>
</svg>
