<svg width="42" height="41" viewBox="0 0 42 41" fill="none" xmlns="http://www.w3.org/2000/svg">
<path d="M34.0903 33.0903C28.0431 39.1374 19.0898 40.154 13.252 35.747C13.6101 36.2212 13.9994 36.6774 14.4293 37.1074C20.15 42.8281 30.0887 42.1655 36.6274 35.6274C43.1655 29.0887 43.8281 19.15 38.1068 13.4293C37.6774 12.9994 37.2212 12.6101 36.747 12.252C41.154 18.0898 40.1374 27.0431 34.0903 33.0903Z" fill="#F4BF1A"/>
<path d="M35.5706 10.8926C41.2919 16.6139 40.6294 26.552 34.0907 33.0907C27.552 39.6294 17.6139 40.2919 11.8926 34.5706C6.17129 28.8493 6.83383 18.9112 13.3725 12.3725C19.9112 5.83383 29.8493 5.17129 35.5706 10.8926Z" fill="#FFD949"/>
<path d="M21.6361 36.0718C18.501 36.0718 15.6416 34.938 13.5828 32.8799C8.80331 28.1004 9.46705 19.6596 15.0628 14.0644C18.0316 11.095 21.9543 9.39258 25.8248 9.39258C28.96 9.39258 31.8194 10.5263 33.8782 12.5845C38.6577 17.364 37.9939 25.8048 32.3982 31.3999C29.43 34.3682 25.5073 36.0718 21.6361 36.0718Z" fill="#F9C012"/>
<path d="M34.4951 32.651L37.0402 35.196C37.3158 34.903 37.5819 34.6046 37.8349 34.2997L35.294 31.7588C35.0411 32.0632 34.7702 32.358 34.4951 32.651Z" fill="#FFCF17"/>
<path d="M32.2822 34.666L34.8285 37.2122C35.1424 36.9688 35.4498 36.7117 35.7518 36.4444L33.2097 33.9023C32.9065 34.1696 32.5968 34.422 32.2822 34.666Z" fill="#FFCF17"/>
<path d="M36.3789 30.3054L38.9234 32.8498C39.1542 32.509 39.3731 32.1633 39.5782 31.8135L37.0391 29.2744C36.8334 29.6242 36.6091 29.9663 36.3789 30.3054Z" fill="#FFCF17"/>
<path d="M37.8994 27.5983L40.4469 30.1452C40.6269 29.7493 40.7895 29.3492 40.9384 28.9462L38.3946 26.4023C38.2457 26.8048 38.0788 27.2031 37.8994 27.5983Z" fill="#FFCF17"/>
<path d="M29.7256 36.338L32.2706 38.883C32.6312 38.6881 32.9888 38.4835 33.3404 38.2611L30.7936 35.7148C30.442 35.9367 30.0862 36.143 29.7256 36.338Z" fill="#FFCF17"/>
<path d="M26.7734 37.614L29.3179 40.1585C29.7323 40.0221 30.1455 39.8726 30.5545 39.7034L28.0107 37.1602C27.6017 37.3288 27.189 37.4783 26.7734 37.614Z" fill="#FFCF17"/>
<path d="M22.5117 38.4255L25.0586 40.9724C25.5675 40.9437 26.0787 40.8904 26.59 40.8127L24.042 38.2646C23.5307 38.3418 23.0206 38.3974 22.5117 38.4255Z" fill="#FFCF17"/>
<path d="M17.8076 37.9492L20.361 40.5026C21.0428 40.6856 21.74 40.8178 22.448 40.8991L19.8958 38.3463C19.1872 38.2638 18.4899 38.1334 17.8076 37.9492Z" fill="#FFCF17"/>
<path d="M39.1426 23.767L41.6852 26.3096C41.7821 25.8205 41.8569 25.3307 41.9083 24.8416L39.3626 22.2959C39.3112 22.7863 39.2389 23.2766 39.1426 23.767Z" fill="#FFCF17"/>
<path d="M41.9736 22.3708C41.9396 21.7256 41.8684 21.0863 41.7524 20.4584L39.1924 17.8984C39.3114 18.5353 39.4029 19.1793 39.437 19.8341L41.9736 22.3708Z" fill="#FFCF17"/>
<path d="M15.3379 31.7063L18.0784 14.3389H21.0212C21.8898 14.3389 22.5637 14.3915 23.0429 14.4968C23.9564 14.7073 24.4132 15.3313 24.4132 16.3688C24.4132 16.7899 24.2409 18.0905 23.8965 20.2709C23.7467 21.1881 23.612 21.8648 23.4921 22.3008C23.2376 23.173 22.9081 23.7368 22.5038 23.9925C22.2641 24.1428 21.9871 24.2556 21.6726 24.3308L22.4588 31.7063H19.7857L19.1118 24.3082H19.0668L17.8987 31.7063H15.3379ZM20.3023 16.4139L19.3589 22.3911H20.3023C20.4371 22.3911 20.5494 22.3685 20.6393 22.3234C20.8639 22.2031 21.0661 21.5791 21.2458 20.4513L21.6277 18.083C21.7026 17.6018 21.74 17.241 21.74 17.0004C21.74 16.6094 21.5977 16.4139 21.3132 16.4139H20.3023Z" fill="#FFE171"/>
<path d="M28.5496 16.5718L27.4938 23.2933H28.28C28.6544 23.2933 28.909 23.1579 29.0438 22.8873C29.1037 22.767 29.1711 22.4662 29.246 21.9851L29.8974 17.9026C29.9573 17.5267 29.9873 17.2861 29.9873 17.1808C29.9873 16.7748 29.7701 16.5718 29.3358 16.5718H28.5496ZM26.1685 31.7063H23.5852L26.3257 14.3389H30.459C31.2527 14.3389 31.7993 14.4291 32.0988 14.6095C32.5032 14.8652 32.7054 15.3614 32.7054 16.0982C32.7054 16.4139 32.6454 16.9553 32.5256 17.7221L31.8293 22.1429C31.6496 23.3158 31.4025 24.1353 31.088 24.6015C30.7735 25.0526 30.2943 25.3307 29.6503 25.436C29.3208 25.4961 28.4822 25.5262 27.1344 25.5262L26.1685 31.7063Z" fill="#FFE171"/>
<g filter="url(#filter0_f)">
<circle cx="19.1563" cy="19.2188" r="11.1563" fill="white" fill-opacity="0.65"/>
</g>
<defs>
<filter id="filter0_f" x="0" y="0.0625" width="38.3125" height="38.3125" filterUnits="userSpaceOnUse" color-interpolation-filters="sRGB">
<feFlood flood-opacity="0" result="BackgroundImageFix"/>
<feBlend mode="normal" in="SourceGraphic" in2="BackgroundImageFix" result="shape"/>
<feGaussianBlur stdDeviation="4" result="effect1_foregroundBlur"/>
</filter>
</defs>
</svg>
