<svg width="22" height="22" viewBox="0 0 22 22" fill="none" xmlns="http://www.w3.org/2000/svg">
<path fill-rule="evenodd" clip-rule="evenodd" d="M11 22C17.0751 22 22 17.0751 22 11C22 4.92487 17.0751 0 11 0C4.92487 0 0 4.92487 0 11C0 17.0751 4.92487 22 11 22ZM4.07407 7.3335H7.52525V8.43802H5.77122V10.2578H7.10807V11.3804H5.77122V13.5714H7.54421V14.6668H4.07407V7.3335ZM9.77482 10.7195L8.35263 7.3335H9.95496L10.7988 9.31621L11.4814 7.3335H12.8941L11.5478 11.145L13.0458 14.6668H11.453L10.5144 12.4759L9.68949 14.6668H8.28626L9.77482 10.7195ZM16.7212 7.3335H14.1423V14.6668H15.8395V11.5524H16.5221C17.2237 11.5524 17.7673 11.4015 18.1529 11.0998C18.5448 10.7919 18.7407 10.2457 18.7407 9.46107C18.7407 8.773 18.5732 8.2479 18.2382 7.88576C17.9032 7.51758 17.3976 7.3335 16.7212 7.3335ZM16.9962 10.1944C16.9014 10.3453 16.7054 10.4207 16.4084 10.4207H15.8395V8.47424H16.3989C16.7086 8.47424 16.9109 8.5527 17.0057 8.70963C17.1005 8.86656 17.1479 9.10798 17.1479 9.43391C17.1479 9.79001 17.0973 10.0435 16.9962 10.1944Z" fill="#ABCFFF"/>
</svg>
