<svg width="300" height="81" viewBox="0 0 300 81" fill="none" xmlns="http://www.w3.org/2000/svg">
<mask id="mask0" mask-type="alpha" maskUnits="userSpaceOnUse" x="2" y="0" width="295" height="81">
<path d="M18.1228 73.3971C19.2253 77.8626 23.2317 81 27.8312 81H286.793C293.286 81 298.058 74.9072 296.501 68.6029L281.439 7.60285C280.337 3.13744 276.331 0 271.731 0H12.7695C6.27574 0 1.50439 6.09276 3.06102 12.3971L18.1228 73.3971Z" fill="url(#paint0_radial)" fill-opacity="0.15"/>
</mask>
<g mask="url(#mask0)">
<path d="M39.5 -233L52.4904 -225.5L-129.01 88.8672L-142 81.3672L39.5 -233Z" fill="#C4C4C4"/>
<path d="M65.4808 -218L78.4711 -210.5L-103.029 103.867L-116.019 96.3672L65.4808 -218Z" fill="#C4C4C4"/>
<path d="M91.4615 -203L104.452 -195.5L-77.0481 118.867L-90.0385 111.367L91.4615 -203Z" fill="#C4C4C4"/>
<path d="M117.442 -188L130.433 -180.5L-51.0673 133.867L-64.0577 126.367L117.442 -188Z" fill="#C4C4C4"/>
<path d="M143.423 -173L156.413 -165.5L-25.0866 148.867L-38.077 141.367L143.423 -173Z" fill="#C4C4C4"/>
<path d="M169.404 -158L182.394 -150.5L0.894189 163.867L-12.0962 156.367L169.404 -158Z" fill="#C4C4C4"/>
<path d="M195.385 -143L208.375 -135.5L26.875 178.867L13.8846 171.367L195.385 -143Z" fill="#C4C4C4"/>
<path d="M221.365 -128L234.356 -120.5L52.8557 193.867L39.8653 186.367L221.365 -128Z" fill="#C4C4C4"/>
<path d="M247.346 -113L260.336 -105.5L78.8365 208.867L65.8461 201.367L247.346 -113Z" fill="#C4C4C4"/>
<path d="M273.327 -98L286.317 -90.5L104.817 223.867L91.8269 216.367L273.327 -98Z" fill="#C4C4C4"/>
<path d="M299.308 -83L312.298 -75.5L130.798 238.867L117.808 231.367L299.308 -83Z" fill="#C4C4C4"/>
<path d="M325.288 -68L338.279 -60.5L156.779 253.867L143.788 246.367L325.288 -68Z" fill="#C4C4C4"/>
<path d="M351.269 -53L364.26 -45.5L182.76 268.867L169.769 261.367L351.269 -53Z" fill="#C4C4C4"/>
<path d="M377.25 -38L390.24 -30.5L208.74 283.867L195.75 276.367L377.25 -38Z" fill="#C4C4C4"/>
<path d="M403.231 -23L416.221 -15.5L234.721 298.867L221.731 291.367L403.231 -23Z" fill="#C4C4C4"/>
<path d="M429.211 -8L442.202 -0.5L260.702 313.867L247.711 306.367L429.211 -8Z" fill="#C4C4C4"/>
</g>
<defs>
<radialGradient id="paint0_radial" cx="0" cy="0" r="1" gradientUnits="userSpaceOnUse" gradientTransform="translate(149.781 40.5) rotate(-90) scale(48.5 179.367)">
<stop stop-color="white"/>
<stop offset="1" stop-color="white" stop-opacity="0"/>
</radialGradient>
</defs>
</svg>
